<?xml version="1.0" encoding="UTF-8" standalone="no"?>
<!-- Created with Inkscape (http://www.inkscape.org/) -->

<svg
   version="1.1"
   id="svg1"
   width="1024"
   height="1024"
   viewBox="0 0 1024 1024"
   sodipodi:docname="profile.svg"
   inkscape:version="1.4.1 (93de688d07, 2025-03-30)"
   xmlns:inkscape="http://www.inkscape.org/namespaces/inkscape"
   xmlns:sodipodi="http://sodipodi.sourceforge.net/DTD/sodipodi-0.dtd"
   xmlns="http://www.w3.org/2000/svg"
   xmlns:svg="http://www.w3.org/2000/svg">
  <defs
     id="defs1" />
  <sodipodi:namedview
     id="namedview1"
     pagecolor="#ffffff"
     bordercolor="#000000"
     borderopacity="0.25"
     inkscape:showpageshadow="2"
     inkscape:pageopacity="0.0"
     inkscape:pagecheckerboard="0"
     inkscape:deskcolor="#d1d1d1"
     inkscape:zoom="1.1025391"
     inkscape:cx="512"
     inkscape:cy="512"
     inkscape:window-width="2560"
     inkscape:window-height="1440"
     inkscape:window-x="0"
     inkscape:window-y="0"
     inkscape:window-maximized="1"
     inkscape:current-layer="g1" />
  <g
     inkscape:groupmode="layer"
     inkscape:label="Image"
     id="g1">
    <path
       style="fill:#000000"
       d="m 224.45455,947.54545 c -3.15594,-3.15593 -3.12546,-6.31328 0.16163,-16.74383 7.51192,-23.83675 23.80384,-49.5198 43.00962,-67.80162 26.30434,-25.03886 60.46835,-42.55898 129.51693,-66.41936 L 415.5,790.23711 415.22277,772.86855 c -0.15247,-9.5527 -0.53045,-21.21386 -0.83995,-25.91369 l -0.56272,-8.54513 -10.66005,-1.79531 C 365.4016,730.25537 333.07972,716.10244 312.6318,696.97441 295.14452,680.61592 282.95202,657.41785 277.05844,629.29074 271.75069,603.9595 270.85238,585.81193 269.02498,467 268.4286,428.225 267.504,374.67099 266.97032,347.99108 266.43665,321.31117 266,290.66537 266,279.8893 v -19.59287 l -7.97844,-0.61525 c -17.72972,-1.36722 -32.04136,-7.66839 -43.61627,-19.20351 -17.88045,-17.81898 -22.25636,-43.20643 -11.52625,-66.87117 5.04361,-11.12346 11.8793,-20.43419 24.57742,-33.47637 17.93973,-18.42582 39.3807,-35.49784 53.53314,-42.624891 31.66226,-15.94486 69.93572,-18.705654 208.5104,-15.04056 139.51171,3.689876 162.23864,5.727538 184.12907,16.508729 19.56226,9.634552 29.77983,25.608642 31.08139,48.592472 l 0.58998,10.41824 7.09978,3.94699 c 9.70212,5.39371 17.50292,11.79244 24.04397,19.72246 20.64503,25.02894 24.75428,55.45222 18.9565,140.34643 l -0.5805,8.5 5.8399,2.45529 c 7.32083,3.07793 16.65093,12.19683 21.05647,20.57982 6.20473,11.80654 9.96779,32.14294 8.78293,47.46489 -2.58684,33.45173 -16.9665,59.66894 -38.49949,70.19281 -9.34634,4.56786 -25.35081,10.1054 -34.25,11.85047 l -6.75,1.32364 -0.006,3.56654 c -0.0108,6.90471 -1.9851,46.74038 -3.05136,61.56654 -2.44456,33.99147 -7.1762,60.07166 -15.6027,86 -7.7541,23.85936 -15.92469,38.75401 -28.22244,51.44834 l -6.72235,6.93913 1.23486,38.80626 c 0.67918,21.34345 1.26518,40.64964 1.30221,42.90265 l 0.0673,4.09638 10.25,3.80398 c 5.6375,2.09218 15.2,5.4807 21.25,7.53002 36.17578,12.25388 78.92088,31.66747 100.21824,45.51622 19.46274,12.65577 36.08178,28.05279 48.7298,45.14662 14.22972,19.2315 29.33183,55.26666 26.43912,63.0864 -1.23747,3.34519 -5.31868,5.50777 -8.90691,4.71966 -3.60424,-0.79162 -4.42566,-2.34279 -8.9639,-16.92734 -6.77617,-21.77659 -16.50359,-37.89017 -33.40692,-55.33896 C 787.79867,848.52119 757.79314,832.09563 686,806.27886 c -12.925,-4.64782 -24.4102,-8.66985 -25.52267,-8.93784 -1.60045,-0.38555 -2.29452,0.26452 -3.32496,3.11416 -2.3412,6.47447 -10.87744,18.00529 -19.34694,26.13398 -14.52268,13.93831 -31.53968,23.68908 -54.68799,31.33632 -22.12833,7.31027 -29.58231,8.46985 -54.61744,8.49656 -20.30116,0.0217 -23.00386,-0.1906 -35,-2.7489 -44.00532,-9.38459 -69.59144,-26.74627 -75.60227,-51.30058 -0.65604,-2.67991 -1.31363,-5.02229 -1.46132,-5.20529 -0.39294,-0.48688 -30.27451,10.02852 -49.93641,17.57275 -46.44009,17.81898 -70.69851,32.32121 -93.50508,55.89945 -5.77779,5.97329 -12.89448,14.35129 -15.81486,18.61778 -6.61525,9.66445 -14.13228,25.29303 -18.15351,37.74275 -1.77379,5.49165 -3.95023,10.23838 -5.15829,11.25 -2.92457,2.44901 -6.53,2.17917 -9.41371,-0.70455 z m 333.95637,-99.51496 c 15.47045,-3.0694 25.31431,-6.34458 39.16401,-13.03036 C 616.87748,825.68204 631.59941,813.31757 640,799.3687 l 3.5,-5.81162 -0.25858,-36.52854 c -0.14222,-20.0907 -0.52219,-39.9667 -0.84437,-44.16889 l -0.5858,-7.64034 -5.77626,3.8367 c -21.79109,14.47404 -54.70972,25.64707 -88.83315,30.15118 -14.63244,1.9314 -21.41013,2.21002 -54.70184,2.24868 -20.9,0.0243 -43.52059,-0.30649 -50.26798,-0.73502 l -12.26797,-0.77915 0.6143,21.27915 c 1.14217,39.56422 1.74661,46.74654 4.40101,52.29568 8.08347,16.89885 34.59058,30.35948 71.02064,36.06514 12.50612,1.9587 38.61507,1.18597 52.41092,-1.55118 z M 543,723.6708 c 35.23663,-5.11575 65.65653,-15.63495 87.91417,-30.40071 10.91274,-7.23953 26.83573,-22.61735 33.06884,-31.93663 10.86718,-16.24778 21.26018,-51.78629 26.04691,-89.06651 1.09694,-8.54321 2.6788,-29.31073 3.51526,-46.15003 0.83645,-16.83931 1.79427,-33.91901 2.12848,-37.9549 0.59622,-7.19973 0.56508,-7.33162 -1.65241,-7 -1.89063,0.28273 -2.55276,1.49424 -4.05066,7.41145 -3.46251,13.67813 -11.37792,27.86204 -21.3528,38.26286 -14.62362,15.24806 -35.77057,23.23164 -71.82838,27.11725 -12.48288,1.34516 -42.61446,1.34559 -55.93346,8e-4 -28.62826,-2.89055 -66.23073,-10.56673 -82.26905,-16.79443 l -7.73225,-3.00244 -10.17732,3.61752 c -13.61695,4.84012 -23.20101,5.1166 -32.15021,0.92746 -3.28508,-1.53775 -6.74487,-3.49457 -7.68843,-4.34848 -1.56705,-1.41816 -2.22683,-1.23699 -7.62153,2.09281 -9.83746,6.07203 -23.66658,10.07445 -43.19093,12.50033 -23.91542,2.97145 -44.67604,-0.95753 -57.79652,-10.93811 C 289.33106,535.80407 286.67908,534 286.33643,534 c -0.79881,0 0.47211,42.91218 1.71776,58 4.27067,51.72808 16.17611,78.94377 43.54421,99.5416 33.60468,25.29162 79.3488,34.74696 164.4016,33.98193 25.89108,-0.23289 39.55188,-0.77139 47,-1.85273 z M 427.45855,620.60512 c -7.58233,-1.84209 -13.9277,-5.26726 -19.94337,-10.76524 C 401.64576,604.47556 396,594.6477 396,589.79482 c 0,-5.37832 6.13501,-9.21519 11.4646,-7.17003 0.8955,0.34364 2.74807,2.83479 4.11683,5.5359 7.2389,14.28528 19.65673,20.19963 34.45269,16.40908 10.31851,-2.64348 20.19815,-10.20036 24.52628,-18.76003 4.0664,-8.04204 9.29577,-10.04448 13.98505,-5.35519 5.18806,5.18805 1.99128,14.13568 -8.97777,25.12835 -13.16828,13.19663 -31.74594,18.99756 -48.10913,15.02222 z m 177.67686,-84.04411 c 31.87997,-4.2727 52.83813,-16.25786 63.05902,-36.06101 7.00105,-13.56465 7.84789,-19.69206 11.40323,-82.5095 l 1.72677,-30.5095 -2.62072,-7.9905 c -2.96525,-9.04093 -4.92731,-19.33372 -7.1466,-37.4905 -4.51599,-36.94672 -7.55665,-76.27824 -7.55691,-97.75 -1.1e-4,-8.9375 -0.34796,-16.25 -0.77301,-16.25 -0.42505,0 -4.20198,1.32046 -8.3932,2.93435 -16.85522,6.49036 -44.12016,11.94524 -69.83399,13.97162 -55.70637,4.38996 -96.12857,0.68461 -134.8733,-12.3633 l -10.36623,-3.491 -6.63023,3.83648 c -15.34142,8.87706 -30.42017,12.72945 -46.15221,11.79119 -15.92969,-0.95004 -29.81335,-6.42546 -39.21378,-15.46505 l -3.73575,-3.59236 -3.86251,2.93904 c -2.12437,1.61646 -6.63702,5.04468 -10.0281,7.61825 -4.70599,3.57148 -11.13377,6.64713 -27.15175,12.99191 L 282,257.48382 v 17.14936 c 0,20.56452 2.63945,176.53584 3.52613,208.36682 l 0.62675,22.5 3.09624,5.81259 c 5.67652,10.65653 16.56004,18.26989 30.26832,21.17362 17.36457,3.67821 45.22852,0.0425 62.3107,-8.13043 5.86338,-2.8053 7.18668,-3.84088 6.62039,-5.18095 -1.67309,-3.95916 -3.41847,-13.07057 -3.43291,-17.92083 -0.0179,-6.01796 3.19551,-28.40489 13.03647,-90.82099 C 401.87344,386.19617 405,365.36132 405,364.13335 c 0,-3.47168 2.83715,-8.12094 5.59573,-9.16975 3.5916,-1.36552 9.13837,1.1288 9.98164,4.48863 0.87369,3.48105 0.38508,7.20684 -7.6125,58.04777 C 401.71513,489.01504 401,493.94482 401,499.98015 c 0,10.58629 4.88521,19.70143 12.38391,23.10673 6.30211,2.86191 13.33081,2.42879 25.75253,-1.58688 12.92212,-4.17744 15.38319,-4.28385 21.96293,-0.94964 13.43177,6.80639 51.17403,14.29325 89.90063,17.83341 9.07317,0.82942 42.82633,-0.30706 54.13541,-1.82276 z M 352.25632,390.97118 c -2.79151,-1.12231 -6.24884,-6.63911 -6.24884,-9.97118 0,-7.37892 8.3088,-12.566 15.38954,-9.60748 C 364.98355,372.89107 368,377.28007 368,381 c 0,7.52052 -8.48018,12.8914 -15.74368,9.97118 z m 193.61489,-2.42549 c -3.81647,-2.15236 -6.26773,-8.81418 -4.83766,-13.14736 2.99791,-9.08375 15.52721,-10.1657 19.84941,-1.71407 4.79093,9.36817 -5.93096,19.9827 -15.01175,14.86143 z M 313.39966,331.58988 c -5.23252,-2.30792 -6.18205,-9.04269 -1.7648,-12.5173 C 314.19924,317.05544 315.32387,317 353.68031,317 h 39.4106 l 2.45454,2.45455 c 2.97944,2.97943 3.20426,7.39764 0.54369,10.68467 l -1.91085,2.36078 -38.83915,0.22867 c -31.06076,0.18288 -39.46005,-0.0452 -41.93948,-1.13879 z m 160.2352,-2.66246 c -3.56923,-2.80756 -3.5935,-7.67802 -0.0548,-11.00311 l 2.58004,-2.42431 59.15609,-0.27351 c 41.04344,-0.18977 59.96262,0.0606 61.79023,0.81759 5.06392,2.09754 6.33384,8.60658 2.43904,12.50137 L 597.09091,331 h -60.4106 c -59.60157,0 -60.44588,-0.0278 -63.04545,-2.07258 z M 722.5,465.13227 c 8.84977,-2.31795 21.12187,-7.23721 26.45758,-10.60549 10.32955,-6.52076 17.93468,-18.9203 22.70998,-37.02678 4.94111,-18.73517 3.29136,-41.78052 -4.02444,-56.21757 -2.6586,-5.24648 -9.14004,-11.76046 -13.2605,-13.32706 -4.06035,-1.54374 -12.54677,-1.06752 -16.88262,0.94739 -5.82512,2.70697 -10.16269,7.82857 -20.40841,24.09724 -8.65519,13.74315 -15.6811,22 -18.7202,22 -0.75426,0 -1.37139,0.90134 -1.37139,2.00298 0,4.33528 -2.97485,57.83649 -3.5136,63.19046 l -0.57292,5.69344 4.79326,0.37631 c 11.46173,0.89984 18.21627,0.59174 24.79326,-1.13092 z M 703.75741,363.12321 c 12.39506,-19.11232 19.21814,-26.10759 28.96389,-29.69482 2.62828,-0.96743 5.09131,-2.02208 5.47339,-2.34367 1.2,-1.01004 3.80531,-45.63377 3.80531,-65.17726 0,-32.29695 -2.00986,-44.93638 -9.68522,-60.90746 -3.81362,-7.93547 -5.90515,-10.82662 -12.70002,-17.55542 -6.83242,-6.76598 -9.84373,-8.89432 -18.81231,-13.29614 -12.2725,-6.02339 -12.54123,-6.43311 -12.61909,-19.23934 -0.11437,-18.81184 -8.03357,-33.45841 -21.50238,-39.76865 -10.21425,-4.78547 -22.4357,-7.13973 -49.68098,-9.57023 -29.04096,-2.59069 -54.24785,-3.49069 -185.80565,-6.634089 -71.64075,-1.71176 -106.3929,0.968145 -131.57275,10.146209 -10.74251,3.91564 -17.14257,7.63036 -30.53132,17.72095 -14.43439,10.87865 -39.54747,35.18928 -45.00697,43.56885 -11.69324,17.94747 -11.98634,38.03074 -0.77723,53.25723 8.0985,11.00104 19.29203,16.56893 37.42564,18.6163 l 10.23172,1.1552 23.49596,-9.45043 c 21.31623,-8.57372 24.217,-10.03062 31.26828,-15.70444 4.27478,-3.4397 10.50125,-7.62283 13.83661,-9.29585 7.50123,-3.76262 8.77231,-3.38419 16.78063,4.99602 9.45754,9.89671 18.90952,13.53503 35.15508,13.53213 14.77545,-0.003 28.20479,-4.45674 40.67639,-13.49111 2.26803,-1.64296 4.97486,-2.98719 6.01519,-2.98719 1.04032,0 6.48519,1.59896 12.09971,3.55325 33.75824,11.75047 65.43563,16.28762 105.20871,15.06902 43.54333,-1.33411 73.20674,-6.42596 102.2389,-17.54974 C 665.0203,209.28264 671.83294,207 672.87812,207 c 1.04517,0 2.96266,0.86013 4.2611,1.9114 l 2.36078,1.91141 0.63523,33.83859 c 0.61348,32.67993 1.7305,48.70711 5.91285,84.8386 3.64737,31.50978 6.78823,47.33724 9.10912,45.90285 0.58416,-0.36104 4.45426,-5.88687 8.60021,-12.27964 z"
       id="path1"
       inkscape:label="path1" />
  </g>
</svg>
